<svg width="10" height="14" viewBox="0 0 10 14" fill="none" xmlns="http://www.w3.org/2000/svg">
<path d="M4.91688 0.0791016C3.61284 0.0791016 2.36221 0.653255 1.44012 1.67525C0.518027 2.69725 0 4.08338 0 5.52871C0 9.20719 4.30227 13.3625 4.51738 13.5396L4.91688 13.9211L5.31637 13.5396C5.53149 13.3625 9.83376 9.20719 9.83376 5.52871C9.83376 4.08338 9.31573 2.69725 8.39364 1.67525C7.47154 0.653255 6.22092 0.0791016 4.91688 0.0791016ZM4.91688 8.25351C4.43064 8.25351 3.95533 8.0937 3.55104 7.7943C3.14675 7.49489 2.83165 7.06934 2.64558 6.57144C2.4595 6.07355 2.41082 5.52568 2.50568 4.99712C2.60054 4.46856 2.83468 3.98305 3.1785 3.60198C3.52232 3.22091 3.96037 2.9614 4.43726 2.85626C4.91415 2.75112 5.40846 2.80508 5.85768 3.01132C6.3069 3.21755 6.69086 3.5668 6.961 4.01489C7.23113 4.46298 7.37532 4.98979 7.37532 5.52871C7.37532 6.25137 7.1163 6.94443 6.65526 7.45543C6.19421 7.96643 5.5689 8.25351 4.91688 8.25351Z" fill="#0077B6"/>
<path d="M4.92584 7.15158C5.68958 7.15158 6.30871 6.46537 6.30871 5.61888C6.30871 4.7724 5.68958 4.08618 4.92584 4.08618C4.1621 4.08618 3.54297 4.7724 3.54297 5.61888C3.54297 6.46537 4.1621 7.15158 4.92584 7.15158Z" fill="#0077B6"/>
</svg>
