<svg width="24" height="22" viewBox="0 0 24 22" fill="none" xmlns="http://www.w3.org/2000/svg">
<path d="M11.2728 3.69775L12 4.44697L12.7272 3.69775L13.7521 2.64175C14.7625 1.60071 16.1252 1.01333 17.5516 1.01333C18.9734 1.01333 20.3235 1.5962 21.3273 2.70431L21.339 2.71724L21.3511 2.72975C23.5318 4.97661 23.5318 8.57539 21.3511 10.8222L21.3482 10.8253L12 20.5387L2.65184 10.8253L2.65184 10.8253L2.64887 10.8222C0.468156 8.57539 0.468155 4.97661 2.64887 2.72975L1.92171 2.024L2.64887 2.72975L2.73428 2.64175C4.81083 0.502212 8.24266 0.501586 10.3215 2.71734L10.3274 2.7236L10.3333 2.72975L11.2728 3.69775Z" stroke="#2A9D8F" strokeWidth="2.02667"/>
</svg>
