<svg width="14" height="14" viewBox="0 0 14 14" fill="none" xmlns="http://www.w3.org/2000/svg">
<path d="M12.2584 6.02404C12.3098 5.76724 12.1044 5.45908 11.8476 5.45908L8.92 5.04819L7.58463 2.37745C7.53327 2.27473 7.48191 2.22336 7.37919 2.172C7.12238 2.01792 6.81422 2.12064 6.66014 2.37745L5.37612 5.04819L2.44857 5.45908C2.29449 5.45908 2.19177 5.51044 2.14041 5.61316C1.93497 5.8186 1.93497 6.12677 2.14041 6.33221L4.24619 8.38663L3.73259 11.3142C3.73259 11.4169 3.73259 11.5196 3.78395 11.6223C3.93803 11.8791 4.24619 11.9819 4.503 11.8278L7.12238 10.4411L9.74177 11.8278C9.79313 11.8791 9.89585 11.8791 9.99857 11.8791C10.0499 11.8791 10.0499 11.8791 10.1013 11.8791C10.3581 11.8278 10.5635 11.571 10.5122 11.2628L9.99857 8.33527L12.1044 6.28085C12.2071 6.22949 12.2584 6.12677 12.2584 6.02404Z" fill="#0077B6"/>
</svg>
